# xmcd CD database file
#
# Track frame offsets:
#	150
#	18890
#	46420
#	69785
#
# Disc length: 1092 seconds
#
# Revision: 0
# Processed by: cddbd v1.5.2PL0 Copyright (c) Steve Scherf et al.
# Submitted via: CDex 1.70beta2
#
DISCID=25044204
DTITLE=PM Dawn - A Watcher's Point Of View(Don't Cha Think) CDS
DYEAR=1991
DGENRE=Rhythmic Soul
TTITLE0=A Watcher's Point Of View(Don't Cha Think) (Youth Radio Mix)
TTITLE1=A Watcher's Point Of View(Don't Cha Think) (Youth Extended Mix)
TTITLE2=Twisted Mellow
TTITLE3=A Watcher's Point Of View(Don't Cha Think) (Acappella)
EXTD=YEAR: 1991
EXTT0=
EXTT1=
EXTT2=
EXTT3=
PLAYORDER=
